<?xml version="1.0"?>
<svg width="145" height="145" xmlns="http://www.w3.org/2000/svg" xmlns:svg="http://www.w3.org/2000/svg">
 <g class="layer">
  <title>Layer 1</title>
  <rect fill="#ffffff" fill-opacity="null" height="145" id="svg_12" stroke="null" stroke-dasharray="null" stroke-linecap="null" stroke-linejoin="null" stroke-opacity="null" width="145" x="0" y="0"/>
  <path d="m96.73,14.56l-7.38,0l7.68,8.33l0,3.97l-15.82,0l0,-4.65l7.68,0l-7.68,-8.33l0,-3.97l15.52,0l0,4.65zm-18.65,0l-7.39,0l7.68,8.33l0,3.97l-15.82,0l0,-4.65l7.68,0l-7.68,-8.33l0,-3.97l15.53,0l0,4.65zm-18.48,0.19l-7.97,0l0,7.27l7.97,0l0,4.84l-13.63,0l0,-16.95l13.63,0l0,4.84z" fill="#131313" id="svg_1"/>
  <path d="m35.11,125.41l-8.09,-90.82l88.96,0l-8.1,90.8l-36.43,10.1l-36.34,-10.08z" fill="#1572B6" id="svg_2"/>
  <path d="m71.5,127.77l29.44,-8.16l6.93,-77.59l-36.37,0l0,85.75z" fill="#33A9DC" id="svg_3"/>
  <path d="m71.5,74.92l14.74,0l1.02,-11.41l-15.76,0l0,-11.13l27.93,0l-0.27,2.98l-2.73,30.7l-24.93,0l0,-11.14z" fill="#fff" id="svg_4"/>
  <path d="m71.57,103.85l-0.05,0.01l-12.41,-3.35l-0.79,-8.88l-11.18,0l1.56,17.49l22.82,6.33l0.05,-0.02l0,-11.58z" fill="#EBEBEB" id="svg_5"/>
  <path d="m85.29,85.59l-1.34,14.91l-12.42,3.36l0,11.58l22.83,-6.33l0.17,-1.88l1.94,-21.64l-11.18,0z" fill="#fff" id="svg_6"/>
  <path d="m71.54,52.38l0,11.13l-26.9,0l-0.23,-2.5l-0.5,-5.65l-0.27,-2.98l27.9,0zm-0.04,22.54l0,11.14l-12.25,0l-0.22,-2.5l-0.51,-5.65l-0.27,-2.99l13.25,0z" fill="#EBEBEB" id="svg_7"/>
  <path d="m71.54,52.38l0,11.13l-26.9,0l-0.23,-2.5l-0.5,-5.65l-0.27,-2.98l27.9,0zm-0.04,22.54l0,11.14l-12.25,0l-0.22,-2.5l-0.51,-5.65l-0.27,-2.99l13.25,0z" fill="#EBEBEB" id="svg_8"/>
 </g>

</svg>