<?xml version="1.0"?>
<svg width="128" height="128" xmlns="http://www.w3.org/2000/svg" xmlns:svg="http://www.w3.org/2000/svg">
 <g class="layer">
  <title>Layer 1</title>
  <rect fill="#ffffff" height="127.25" id="svg_2" width="127.25" x="0.38" y="0.5"/>
  <path d="m40.53,77.82l0,-27.08l1.47,0l0,4.26a5.57,5.57 0 0 0 0.48,-0.6a7.28,7.28 0 0 1 6.64,-4.12c3.35,-0.1 6.07,1.14 7.67,4.12a13.24,13.24 0 0 1 0.32,12.14c-1.49,3.34 -5.17,5 -9.11,4.39a7.37,7.37 0 0 1 -5.88,-3.88l0,10.77l-1.59,0zm1.47,-17.5c0.13,1.32 0.18,2.26 0.33,3.18c0.58,3.62 2.72,5.77 6.08,6.16a6.91,6.91 0 0 0 7.59,-4.39a11.77,11.77 0 0 0 -0.26,-9.68a6.77,6.77 0 0 0 -7.13,-3.94a6.59,6.59 0 0 0 -5.89,4.87a33.4,33.4 0 0 0 -0.72,3.8zm46.41,3.68a7.92,7.92 0 0 1 -7.74,7c-6.16,0.31 -9.05,-3.78 -9.51,-8.5a13.62,13.62 0 0 1 1.2,-7.5a8.37,8.37 0 0 1 8.71,-4.67a8,8 0 0 1 7.1,6.09a41.09,41.09 0 0 1 0.69,4.5l-16.19,0c-0.3,4.28 2,7.72 5.26,8.55c4.06,1 7.53,-0.76 8.79,-4.62c0.28,-0.99 0.79,-1.13 1.69,-0.85zm-15.74,-4.45l14.47,0c-0.09,-4.56 -2.93,-7.86 -6.78,-7.91c-4.36,-0.07 -7.5,3.11 -7.69,7.91zm18.72,4.55l1.42,0a5.69,5.69 0 0 0 3.34,4.9a8.73,8.73 0 0 0 7.58,-0.2a3.41,3.41 0 0 0 2,-3.35a3.09,3.09 0 0 0 -2.08,-3.09c-1.56,-0.58 -3.22,-0.9 -4.81,-1.41a35.25,35.25 0 0 1 -4.84,-1.77c-2.56,-1.25 -2.72,-6.12 0.18,-7.66a10.21,10.21 0 0 1 9.76,-0.15a5.14,5.14 0 0 1 2.6,5.24l-1.22,0c0,-0.06 -0.11,-0.11 -0.11,-0.17c-0.15,-3.89 -3.41,-5.09 -6.91,-4.75a9.17,9.17 0 0 0 -3,0.91a3,3 0 0 0 -1.74,3a3,3 0 0 0 2,2.82c1.54,0.56 3.15,0.92 4.73,1.36c1.27,0.35 2.59,0.58 3.82,1a4.51,4.51 0 0 1 3.1,4.07a4.81,4.81 0 0 1 -2.59,5c-3.34,1.89 -8.84,1.39 -11.29,-1a6.67,6.67 0 0 1 -1.94,-4.75zm33.82,-7.49l-1.33,0c0,-0.18 -0.07,-0.34 -0.09,-0.49a4.35,4.35 0 0 0 -3.54,-4.18a8.73,8.73 0 0 0 -5.61,0.27a3.41,3.41 0 0 0 -2.47,3.25a3.14,3.14 0 0 0 2.4,3.16c2,0.62 4.05,1 6.08,1.56a17,17 0 0 1 1.94,0.59a5,5 0 0 1 0.27,9.31a11.13,11.13 0 0 1 -9,0.09a6.24,6.24 0 0 1 -3.76,-6.06l1.3,0a7.29,7.29 0 0 0 11.1,4.64a3.57,3.57 0 0 0 1.92,-3.34a3.09,3.09 0 0 0 -2.11,-3.07c-1.56,-0.58 -3.22,-0.89 -4.81,-1.4a35.43,35.43 0 0 1 -4.87,-1.75c-2.5,-1.23 -2.7,-6.06 0.15,-7.6a10.07,10.07 0 0 1 9.92,-0.11a5.23,5.23 0 0 1 2.51,5.13zm-87.11,13.9a2.29,2.29 0 0 1 -2.84,-1.08c-1.63,-2.44 -3.43,-4.77 -5.16,-7.15l-0.75,-1c-2.06,2.76 -4.12,5.41 -6,8.16a2.2,2.2 0 0 1 -2.7,1.06l7.73,-10.37l-7.19,-9.37a2.39,2.39 0 0 1 2.85,1c1.67,2.44 3.52,4.77 5.36,7.24c1.85,-2.45 3.68,-4.79 5.39,-7.21a2.15,2.15 0 0 1 2.68,-1l-2.79,3.7c-1.25,1.65 -2.48,3.31 -3.78,4.92a1,1 0 0 0 0,1.49c2.39,3.17 4.76,6.35 7.2,9.61zm32.82,-19.85l0,1.4a7.25,7.25 0 0 0 -7.72,7.49l0,11l-1.43,0l0,-19.81l1.4,0l0,4.06c1.73,-2.96 4.4,-4.06 7.75,-4.14zm-68.79,9.34c0.21,-1 0.34,-2.09 0.63,-3.11c1.73,-6.15 8.78,-8.71 13.63,-4.9c2.84,2.23 3.55,5.39 3.41,8.95l-16,0c-0.26,6.36 4.33,10.2 10.2,8.24a6.09,6.09 0 0 0 3.87,-4.31c0.31,-1 0.81,-1.17 1.76,-0.88a8.12,8.12 0 0 1 -3.88,5.93a9.4,9.4 0 0 1 -10.95,-1.4a9.85,9.85 0 0 1 -2.46,-5.78c0,-0.34 -0.13,-0.68 -0.2,-1q-0.01,-0.89 -0.01,-1.74zm1.69,-0.43l14.47,0c-0.09,-4.61 -3,-7.88 -6.88,-7.91c-4.32,-0.06 -7.41,3.14 -7.6,7.89l0.01,0.02z" id="svg_1"/>
 </g>
</svg>