<?xml version="1.0"?>
<svg width="38" height="38" xmlns="http://www.w3.org/2000/svg" xmlns:svg="http://www.w3.org/2000/svg">
 <g class="layer">
  <title>Layer 1</title>
  <rect fill="#ffffff" fill-opacity="null" height="37.5" id="svg_2" stroke="null" stroke-dasharray="null" stroke-linecap="null" stroke-linejoin="null" stroke-opacity="null" width="37.5" x="0" y="0"/>
  <path d="m34.15,17.32l-13.97,-13.97a2.06,2.06 0 0 0 -2.92,0l-2.9,2.9l3.68,3.68c0.86,-0.3 1.84,-0.09 2.52,0.59a2.45,2.45 0 0 1 0.58,2.53l3.55,3.55c0.86,-0.3 1.85,-0.1 2.53,0.58a2.45,2.45 0 1 1 -3.47,3.47c-0.72,-0.72 -0.9,-1.78 -0.53,-2.67l-3.31,-3.3l0,8.7a2.5,2.5 0 0 1 0.65,0.46a2.45,2.45 0 1 1 -3.47,3.47a2.45,2.45 0 0 1 0,-3.47c0.24,-0.23 0.5,-0.41 0.8,-0.53l0,-8.79c-0.29,-0.12 -0.56,-0.29 -0.8,-0.53a2.45,2.45 0 0 1 -0.53,-2.68l-3.63,-3.63l-9.58,9.57a2.06,2.06 0 0 0 0,2.91l13.97,13.97a2.06,2.06 0 0 0 2.92,0l13.91,-13.88a2.06,2.06 0 0 0 0,-2.91" fill="#f03c2e" id="svg_1"/>
 </g>

</svg>