<?xml version="1.0"?>
<svg width="128" height="128" xmlns="http://www.w3.org/2000/svg" xmlns:svg="http://www.w3.org/2000/svg">
 <g class="layer">
  <title>Layer 1</title>
  <rect fill="#ffffff" fill-opacity="null" height="152" id="svg_6" stroke="#ffffff" stroke-dasharray="null" stroke-linecap="null" stroke-linejoin="null" stroke-opacity="null" width="152" x="-12" y="-12.6"/>
  <path d="m27.85,116.35l-8.04,-90.21l88.38,0l-8.05,90.2l-36.19,10.03l-36.1,-10.02z" fill="#E44D26" id="svg_1" transform="matrix(1, 0, 0, 1, 0, 0)"/>
  <path d="m64,118.7l29.24,-8.1l6.89,-77.08l-36.13,0l0,85.18z" fill="#F16529" id="svg_2"/>
  <path d="m64,66.98l-14.64,0l-1.01,-11.33l15.65,0l0,-11.07l-27.74,0l0.26,2.97l2.72,30.49l24.76,0l0,-11.06zm0,28.73l-0.05,0.01l-12.32,-3.32l-0.79,-8.83l-11.11,0l1.55,17.38l22.67,6.29l0.05,-0.02l0,-11.51z" fill="#EBEBEB" id="svg_3"/>
  <path d="m28.03,1.63l5.63,0l0,5.55l5.14,0l0,-5.55l5.62,0l0,16.82l-5.62,0l0,-5.63l-5.14,0l0,5.63l-5.63,0l0,-16.82zm23.79,5.58l-4.95,0l0,-5.58l15.52,0l0,5.58l-4.95,0l0,11.24l-5.62,0l0,-11.24zm13.04,-5.58l5.86,0l3.6,5.91l3.61,-5.91l5.86,0l0,16.82l-5.6,0l0,-8.34l-3.87,5.98l-0.09,0l-3.87,-5.98l0,8.34l-5.51,0l0,-16.82l0.01,0zm21.73,0l5.63,0l0,11.26l7.9,0l0,5.56l-13.53,0l0,-16.82z" id="svg_4"/>
  <path d="m63.96,66.98l0,11.06l13.63,0l-1.29,14.35l-12.34,3.33l0,11.51l22.68,-6.28l0.17,-1.87l2.6,-29.13l0.27,-2.97l-2.98,0l-22.74,0zm0,-22.4l0,11.07l26.73,0l0.22,-2.49l0.5,-5.61l0.27,-2.97l-27.72,0z" fill="#fff" id="svg_5"/>
 </g>

</svg>