<?xml version="1.0"?>
<svg width="165" height="165" xmlns="http://www.w3.org/2000/svg" xmlns:svg="http://www.w3.org/2000/svg">
 <g class="layer">
  <title>Layer 1</title>
  <rect fill="#ffffff" fill-opacity="null" height="165" id="svg_1" stroke="null" stroke-dasharray="null" stroke-linecap="null" stroke-linejoin="null" stroke-opacity="null" width="165" x="0" y="0"/>
  <g id="svg_7">
   <path d="m19.91,19.91l125.18,0l0,125.18l-125.18,0l0,-125.18z" fill="#F0DB4F" id="svg_4"/>
   <path d="m135.35,115.51c-0.92,-5.71 -4.64,-10.51 -15.68,-14.98c-3.83,-1.77 -8.1,-3.03 -9.37,-5.93c-0.45,-1.69 -0.51,-2.64 -0.23,-3.67c0.82,-3.32 4.79,-4.35 7.93,-3.4c2.02,0.68 3.94,2.24 5.09,4.72c5.4,-3.49 5.39,-3.47 9.16,-5.87c-1.38,-2.15 -2.11,-3.13 -3.02,-4.05c-3.25,-3.63 -7.68,-5.5 -14.76,-5.35l-3.68,0.47c-3.54,0.9 -6.91,2.75 -8.88,5.24c-5.93,6.72 -4.24,18.49 2.97,23.33c7.11,5.33 17.54,6.55 18.88,11.53c1.29,6.11 -4.49,8.08 -10.24,7.38c-4.23,-0.88 -6.59,-3.03 -9.13,-6.95c-4.69,2.72 -4.69,2.72 -9.51,5.49c1.14,2.5 2.34,3.63 4.26,5.79c9.07,9.2 31.76,8.75 35.83,-5.17c0.16,-0.48 1.26,-3.67 0.38,-8.58zm-46.89,-37.8l-11.71,0l-0.05,30.28c0,6.43 0.34,12.34 -0.71,14.14c-1.71,3.56 -6.15,3.12 -8.17,2.43c-2.06,-1.01 -3.11,-2.45 -4.32,-4.48c-0.34,-0.59 -0.59,-1.04 -0.67,-1.07l-9.52,5.83c1.58,3.24 3.92,6.06 6.9,7.9c4.46,2.67 10.46,3.5 16.73,2.06c4.09,-1.19 7.61,-3.66 9.45,-7.41c2.67,-4.91 2.09,-10.86 2.07,-17.44c0.06,-10.73 0,-21.47 0,-32.24z" fill="#323330" id="svg_3"/>
  </g>
 </g>

</svg>