<?xml version="1.0"?>
<svg width="148" height="148" xmlns="http://www.w3.org/2000/svg" xmlns:svg="http://www.w3.org/2000/svg">
 <g class="layer">
  <title>Layer 1</title>
  <rect fill="#ffffff" fill-opacity="null" height="147.93" id="svg_23" stroke="null" stroke-dasharray="null" stroke-linecap="null" stroke-linejoin="null" stroke-opacity="null" width="147.93" x="0" y="0"/>
  <path clip-rule="evenodd" d="m96.71,109.93c0.17,-0.33 0.33,-0.61 0.47,-0.91c0.08,-0.19 0.22,-0.23 0.41,-0.22c1.13,0.03 2.26,0.06 3.4,0.07c0.96,0.01 1.93,0 2.89,-0.01c1.09,-0.02 2.17,-0.07 3.26,-0.04c1.44,0.04 2.85,0.32 4.16,0.96c1.56,0.77 2.74,1.94 3.54,3.49a8.71,8.71 0 0 1 0.93,3.14c0.18,1.61 0.06,3.18 -0.45,4.71c-0.63,1.91 -1.83,3.37 -3.49,4.46c-1.29,0.84 -2.69,1.34 -4.2,1.62c-1.6,0.31 -3.2,0.21 -4.8,0.21c-1.76,0.01 -3.51,-0.03 -5.27,-0.05c-0.31,0 -0.35,-0.06 -0.27,-0.35l0.08,-0.27c0.17,-0.54 0.26,-0.56 0.81,-0.65a2.83,2.83 0 0 0 1.08,-0.42c0.19,-0.12 0.26,-0.44 0.33,-0.68c0.07,-0.22 0.07,-0.45 0.07,-0.68c0.03,-3.42 0.05,-6.85 0.07,-10.27a44.08,44.08 0 0 0 -0.07,-2.59c-0.03,-0.61 -0.36,-1.02 -1.08,-1.17c-0.56,-0.11 -1.12,-0.19 -1.68,-0.29l-0.19,-0.06zm16.08,8.29c-0.08,-0.68 -0.12,-1.37 -0.24,-2.04c-0.29,-1.61 -1,-3.02 -2.24,-4.12c-2,-1.78 -4.42,-2.05 -6.95,-1.84c-0.57,0.05 -0.7,0.24 -0.71,0.84c-0.01,0.84 -0.02,1.68 -0.02,2.52c-0.01,2.66 -0.01,5.32 0,7.99c0,0.76 0,1.52 0.03,2.27c0.02,0.78 0.3,1.43 1.06,1.73c1.19,0.47 2.45,0.53 3.71,0.34c2,-0.31 3.4,-1.48 4.34,-3.23c0.74,-1.39 0.95,-2.9 1.02,-4.46zm4.86,9.07c-0.02,-0.41 0.15,-0.76 0.36,-1.07c0.06,-0.09 0.25,-0.08 0.39,-0.11l1.14,-0.23c0.41,-0.08 0.62,-0.35 0.68,-0.75c0.04,-0.26 0.07,-0.53 0.08,-0.79a879.6,879.6 0 0 0 0.06,-6.29c0.01,-2.1 0,-4.2 0,-6.3l-0.01,-0.4c-0.04,-0.68 -0.37,-1.03 -1.04,-1.13l-1.45,-0.22c-0.18,-0.02 -0.25,-0.11 -0.18,-0.27c0.11,-0.27 0.22,-0.55 0.38,-0.79c0.05,-0.09 0.25,-0.13 0.39,-0.13c0.69,0.01 1.39,0.07 2.08,0.06l6.04,-0.03c1.16,0 2.29,0.2 3.33,0.76c1.15,0.61 1.79,1.56 1.98,2.85c0.19,1.35 -0.22,2.49 -1.21,3.4c-0.41,0.37 -0.93,0.62 -1.41,0.92l-0.15,0.1c0.44,0.16 0.85,0.3 1.26,0.46c1.19,0.49 2.13,1.25 2.63,2.47c0.4,0.96 0.4,1.96 0.16,2.95c-0.36,1.56 -1.38,2.59 -2.72,3.37c-1.25,0.74 -2.6,1.17 -4.04,1.24c-1.33,0.07 -2.67,0.04 -4,0.06l-0.78,0a996.11,996.11 0 0 1 -3.85,-0.1l-0.12,-0.03zm5.54,-6.09l0.01,0c0,0.66 0,1.32 0.01,1.98c0.01,0.42 -0.01,0.86 0.08,1.27c0.14,0.61 0.42,1.17 1.11,1.34a6.67,6.67 0 0 0 2.82,0.13c1.17,-0.21 2.11,-0.8 2.63,-1.92c0.38,-0.83 0.44,-1.71 0.31,-2.62c-0.18,-1.18 -0.81,-2.05 -1.86,-2.61c-0.69,-0.37 -1.42,-0.6 -2.2,-0.63c-0.88,-0.03 -1.76,-0.03 -2.63,-0.06c-0.25,-0.01 -0.28,0.12 -0.28,0.32c0,0.93 0,1.87 0,2.8zm1.87,-4.47c0.48,-0.03 1.02,-0.03 1.56,-0.09c1.03,-0.1 1.76,-0.62 2.13,-1.6c0.2,-0.51 0.19,-1.02 0.19,-1.54c0.02,-1.36 -0.77,-2.47 -2.06,-2.93c-1,-0.36 -2.02,-0.36 -3.05,-0.33c-0.42,0.01 -0.61,0.19 -0.62,0.61l-0.06,5.49c0,0.22 0.09,0.31 0.31,0.32l1.6,0.07z" fill="#94795D" fill-rule="evenodd" id="svg_1"/>
  <path clip-rule="evenodd" d="m19.99,126.24l-0.07,0.94c-0.68,0 -1.31,0 -1.93,0c-1.19,0.02 -2.37,0.03 -3.55,0.05l-0.11,0.01c-0.17,-0.02 -0.48,-0.02 -0.49,-0.07c-0.05,-0.28 -0.03,-0.58 -0.02,-0.87c0,-0.03 0.12,-0.07 0.19,-0.09l0.91,-0.2c0.58,-0.15 0.78,-0.4 0.81,-0.99c0.03,-0.67 0.06,-1.34 0.06,-2c0.01,-1.65 0,-3.29 0.01,-4.93c0,-0.38 -0.13,-0.67 -0.49,-0.82a43.79,43.79 0 0 0 -1.29,-0.55c-0.2,-0.08 -0.47,-0.13 -0.44,-0.4c0.02,-0.28 0.28,-0.35 0.52,-0.41c1,-0.23 2.01,-0.45 3,-0.69c0.33,-0.08 0.63,-0.22 1.02,-0.35c0.02,0.21 0.06,0.41 0.05,0.6l-0.06,0.95c0,0.1 0.06,0.24 0.14,0.3c0.05,0.04 0.21,-0.03 0.29,-0.09c0.85,-0.65 1.75,-1.21 2.79,-1.54c1.59,-0.5 2.96,-0.03 3.92,1.34c0.34,0.49 0.34,0.49 0.81,0.15c0.81,-0.59 1.65,-1.1 2.59,-1.44c2.07,-0.75 4.05,0.2 4.77,2.28c0.27,0.76 0.37,1.54 0.36,2.34l-0.01,5.29c-0.01,0.44 0.14,0.69 0.56,0.83c0.46,0.15 0.95,0.25 1.47,0.39l-0.12,0.91c-0.6,0 -1.15,0 -1.7,0c-1.34,0.02 -2.69,0.02 -4.03,0.05c-0.23,0.01 -0.29,-0.05 -0.31,-0.27c-0.03,-0.7 -0.04,-0.7 0.62,-0.85l0.22,-0.06c0.65,-0.18 0.86,-0.38 0.87,-1.03c0.01,-1.88 0.05,-3.76 -0.04,-5.63c-0.1,-1.95 -1.65,-2.98 -3.53,-2.49a5.19,5.19 0 0 0 -1.69,0.82c-0.18,0.12 -0.21,0.27 -0.19,0.49c0.05,0.82 0.08,1.65 0.09,2.48c0.01,1.45 -0.01,2.9 0,4.36c0,0.58 0.2,0.81 0.78,0.95l0.86,0.19l0.16,0.04c0.02,0.28 0.03,0.55 0.02,0.83c-0.01,0.17 -0.15,0.19 -0.3,0.18c-0.84,-0.02 -1.68,-0.05 -2.52,-0.04c-1.02,0 -2.04,0.03 -3.06,0.05l-0.24,0c0,-0.3 -0.01,-0.58 0.01,-0.86c0.01,-0.06 0.13,-0.16 0.21,-0.18l1,-0.21c0.43,-0.11 0.63,-0.33 0.66,-0.76c0.11,-2.01 0.19,-4.02 0.01,-6.03a3.69,3.69 0 0 0 -0.33,-1.14c-0.52,-1.14 -1.67,-1.62 -3.01,-1.28c-0.64,0.17 -1.21,0.46 -1.75,0.82a0.79,0.79 0 0 0 -0.38,0.7c0,2 0.01,4.01 0.01,6.01l0.01,0.78c0.02,0.54 0.25,0.82 0.78,0.94c0.34,0.07 0.69,0.13 1.08,0.2z" fill="#50382B" fill-rule="evenodd" id="svg_2"/>
  <path clip-rule="evenodd" d="m80.45,115.07c0.16,0.76 0.15,1.44 -0.4,1.95c-0.55,0.51 -1.25,0.34 -1.93,0.23c0.07,0.35 0.14,0.66 0.17,0.97c0.25,2.28 -0.74,3.98 -2.86,4.95c-0.8,0.37 -1.65,0.51 -2.52,0.58c-0.43,0.03 -0.81,0.36 -0.85,0.72c-0.04,0.36 0.18,0.73 0.63,0.83c0.54,0.13 1.09,0.17 1.64,0.23c1.17,0.13 2.36,0.19 3.52,0.4c1.75,0.32 2.73,1.85 2.42,3.61c-0.27,1.57 -1.18,2.71 -2.44,3.59c-2.14,1.48 -4.48,1.91 -6.97,1.15c-1.42,-0.43 -2.43,-1.37 -2.78,-2.88c-0.17,-0.76 0.01,-1.45 0.59,-1.96c0.67,-0.61 1.41,-1.16 2.12,-1.73l0.23,-0.23l-0.26,-0.19c-0.72,-0.34 -1.3,-0.81 -1.53,-1.63c-0.08,-0.28 0,-0.46 0.24,-0.6c0.4,-0.24 0.8,-0.49 1.19,-0.74c0.19,-0.11 0.37,-0.23 0.54,-0.37c0.24,-0.18 0.22,-0.31 -0.06,-0.42c-0.66,-0.24 -1.24,-0.59 -1.69,-1.13c-0.76,-0.9 -0.97,-1.97 -0.91,-3.11c0.1,-1.77 1.06,-2.93 2.62,-3.68c1.86,-0.89 3.72,-0.95 5.61,-0.14c0.7,0.3 1.44,0.37 2.19,0.32c0.56,-0.04 1.05,-0.26 1.49,-0.72zm-6.84,12.69c-1.4,-0.02 -1.83,0.16 -2.65,0.99c-0.92,0.93 -0.91,2.23 0,3.17c0.7,0.71 1.56,1.04 2.52,1.14c1.13,0.12 2.24,0.07 3.26,-0.49c1.09,-0.61 1.63,-1.73 1.39,-2.86c-0.21,-0.93 -0.89,-1.35 -1.73,-1.6c-0.95,-0.28 -1.93,-0.33 -2.79,-0.35zm-2.74,-8.91c0.05,0.38 0.07,0.78 0.16,1.16c0.22,0.98 0.65,1.84 1.63,2.28c1.14,0.51 2.61,0.29 3.11,-1.32a4.85,4.85 0 0 0 -0.11,-3.27a2.51,2.51 0 0 0 -0.91,-1.19c-1,-0.69 -2.8,-0.78 -3.53,0.75c-0.24,0.5 -0.33,1.03 -0.35,1.59z" fill="#4F382B" fill-rule="evenodd" id="svg_3"/>
  <path clip-rule="evenodd" d="m56.8,114.83c0.04,0.17 0.11,0.36 0.11,0.56c0.01,0.37 -0.03,0.74 -0.05,1.11l0,0.32l0.31,-0.24c0.86,-0.7 1.78,-1.31 2.86,-1.63c1.94,-0.59 3.88,0.48 4.51,2.45c0.24,0.76 0.34,1.53 0.35,2.31c0.02,1.75 0.03,3.5 0.05,5.24c0,0.63 0.08,0.74 0.67,0.92a7.4,7.4 0 0 0 1.03,0.23c0.19,0.03 0.27,0.11 0.26,0.29l0,0.18c0,0.72 -0.05,0.75 -0.75,0.75c-1.68,0 -3.36,0.01 -5.04,0.02c-0.5,0 -0.5,0.02 -0.55,-0.47l-0.01,-0.29c0.03,-0.42 0.04,-0.42 0.46,-0.48c0.28,-0.04 0.56,-0.11 0.84,-0.18c0.28,-0.07 0.42,-0.28 0.46,-0.56c0.02,-0.15 0.04,-0.29 0.04,-0.43c-0.02,-1.91 0.01,-3.82 -0.1,-5.72c-0.08,-1.54 -1.26,-2.46 -2.81,-2.36a4.05,4.05 0 0 0 -2.07,0.75c-0.41,0.29 -0.49,0.7 -0.49,1.15c0.01,1.79 0.02,3.57 0.04,5.35c0.01,0.4 0.02,0.79 0.06,1.17c0.03,0.43 0.18,0.6 0.6,0.69c0.4,0.09 0.8,0.14 1.23,0.21l0.03,0.33c0.02,0.76 -0.06,0.82 -0.8,0.82c-1.74,-0.01 -3.47,0 -5.21,0.02c-0.27,0.01 -0.39,-0.08 -0.38,-0.35l0,-0.11c-0.05,-0.69 -0.03,-0.72 0.62,-0.83l0.31,-0.06c0.71,-0.16 0.89,-0.35 0.9,-1.06c0.03,-2.28 0.04,-4.55 0.07,-6.82c0,-0.32 -0.12,-0.57 -0.43,-0.71a53.88,53.88 0 0 0 -1.28,-0.54c-0.24,-0.1 -0.51,-0.16 -0.52,-0.49c-0.01,-0.24 0.24,-0.44 0.58,-0.51c0.68,-0.14 1.37,-0.25 2.04,-0.42c0.67,-0.17 1.33,-0.39 2.06,-0.61z" fill="#4F372B" fill-rule="evenodd" id="svg_4"/>
  <path clip-rule="evenodd" d="m94.31,120.76c-0.03,2.12 -0.58,3.84 -2.08,5.12c-1.9,1.64 -4.86,2.19 -7.29,0.97c-1.03,-0.52 -1.79,-1.32 -2.28,-2.36c-0.76,-1.59 -0.95,-3.27 -0.56,-4.99c0.39,-1.7 1.42,-2.93 2.96,-3.72c1.59,-0.82 3.26,-1.14 5.01,-0.71c2.23,0.54 3.83,2.35 4.15,4.66c0.05,0.41 0.08,0.82 0.09,1.03zm-2.57,1.15l-0.09,-0.01c0,-0.2 0.01,-0.4 0,-0.6c-0.07,-1.25 -0.35,-2.43 -1.07,-3.48c-0.69,-0.98 -1.62,-1.57 -2.84,-1.65c-1.36,-0.1 -2.5,0.66 -2.9,2.05c-0.6,2.08 -0.4,4.11 0.66,6.02c0.46,0.83 1.15,1.45 2.06,1.77c1.79,0.63 3.38,-0.18 3.85,-2.02c0.17,-0.68 0.22,-1.39 0.33,-2.08z" fill="#4F382B" fill-rule="evenodd" id="svg_5"/>
  <path clip-rule="evenodd" d="m50.27,120.92c-0.04,1.53 -0.4,2.93 -1.34,4.16c-1,1.31 -2.39,2.01 -3.96,2.3c-1.86,0.35 -3.61,0.03 -5.11,-1.22c-0.71,-0.59 -1.19,-1.35 -1.51,-2.22c-0.53,-1.42 -0.66,-2.87 -0.33,-4.35c0.34,-1.59 1.24,-2.8 2.63,-3.62c1.6,-0.94 3.34,-1.36 5.19,-0.94c2.38,0.55 3.75,2.1 4.26,4.45c0.1,0.47 0.11,0.96 0.17,1.44zm-2.61,1.01l-0.07,-0.01l0,-0.29c-0.04,-1.39 -0.31,-2.72 -1.14,-3.88c-0.62,-0.87 -1.44,-1.4 -2.5,-1.56c-1.73,-0.24 -2.86,0.78 -3.23,2.17c-0.49,1.82 -0.34,3.61 0.42,5.34c0.47,1.07 1.21,1.91 2.36,2.31c1.78,0.64 3.39,-0.2 3.84,-2.03c0.17,-0.67 0.22,-1.37 0.32,-2.05z" fill="#4F372B" fill-rule="evenodd" id="svg_6"/>
  <path clip-rule="evenodd" d="m91.81,43.33c1.23,3.55 2.11,7.17 2.4,10.92c0.36,4.66 0.2,9.28 -0.78,13.86l-0.13,0.37c-0.31,0 -0.62,-0.04 -0.92,0.01c-2.55,0.4 -5.09,0.81 -7.63,1.22c-2.62,0.43 -5.25,0.84 -7.88,1.29c-0.92,0.16 -2.07,-0.03 -2.45,1.26l-0.18,0.06l0.13,-7.68l-0.13,-18.53l1.22,-0.21c2,-0.32 4,-0.66 6.01,-0.98c2.39,-0.37 4.78,-0.74 7.17,-1.11c1.06,-0.17 2.12,-0.32 3.17,-0.48z" fill="#439934" fill-rule="evenodd" id="svg_7"/>
  <path clip-rule="evenodd" d="m71.72,94.7c-1.3,-1.11 -2.63,-2.17 -3.87,-3.34c-6.66,-6.28 -11.53,-13.67 -13.93,-22.58c-0.66,-2.46 -1.1,-4.95 -1.24,-7.48c-0.1,-1.78 -0.24,-3.57 -0.12,-5.33c0.34,-4.69 1.02,-9.34 2.39,-13.86l0.08,-0.11c0.13,0.18 0.32,0.34 0.39,0.54c1.34,3.96 2.68,7.92 4,11.88c4.17,12.45 8.34,24.9 12.51,37.35c0.09,0.24 0.3,0.44 0.45,0.66l-0.67,2.27l0.01,0z" fill="#45A538" fill-rule="evenodd" id="svg_8"/>
  <path clip-rule="evenodd" d="m91.81,43.33c-1.06,0.16 -2.11,0.31 -3.17,0.47c-2.39,0.37 -4.78,0.74 -7.17,1.12c-2,0.32 -4.01,0.65 -6.01,0.98l-1.22,0.21l-0.01,-0.8c-0.04,-0.65 -0.11,-1.31 -0.12,-1.96l-0.14,-12.56c-0.03,-2.62 -0.08,-5.24 -0.13,-7.85a198.42,198.42 0 0 0 -0.14,-4.88c-0.04,-0.88 -0.18,-1.75 -0.24,-2.62c-0.03,-0.5 0.01,-1.01 0.02,-1.51c0.63,1.21 1.24,2.43 1.88,3.63c1.01,1.89 2.63,3.29 4.08,4.82c5.75,6.03 9.83,13.04 12.37,20.95z" fill="#46A037" fill-rule="evenodd" id="svg_9"/>
  <path clip-rule="evenodd" d="m74.24,72.32l0.18,-0.06c0.38,-1.29 1.53,-1.1 2.46,-1.26c2.62,-0.45 5.25,-0.86 7.87,-1.29c2.54,-0.41 5.09,-0.82 7.63,-1.22c0.3,-0.05 0.61,-0.01 0.92,-0.01c-0.47,1.69 -0.85,3.43 -1.45,5.08c-0.69,1.87 -1.51,3.69 -2.39,5.48a37.59,37.59 0 0 1 -4.86,7.46c-1.46,1.76 -3.1,3.39 -4.73,5c-0.91,0.89 -1.97,1.62 -2.97,2.42l-0.26,-0.18l-0.92,-0.79l-0.96,-2.11a31.65,31.65 0 0 1 -1.07,-7.51l0.02,-0.43l0.13,-1.85c0.04,-0.64 0.1,-1.27 0.13,-1.9c0.1,-2.28 0.18,-4.56 0.27,-6.83z" fill="#409433" fill-rule="evenodd" id="svg_10"/>
  <path clip-rule="evenodd" d="m74.24,72.32c-0.09,2.28 -0.17,4.55 -0.27,6.83c-0.03,0.64 -0.08,1.27 -0.13,1.9l-0.58,0.22c-1.3,-3.82 -2.6,-7.6 -3.87,-11.39c-2.1,-6.27 -4.18,-12.55 -6.27,-18.82a3423.01,3423.01 0 0 0 -5.12,-15.18c-0.08,-0.24 -0.31,-0.42 -0.47,-0.63l3.74,-6.88c0.13,0.22 0.3,0.43 0.38,0.67c1.73,5.12 3.45,10.24 5.17,15.37c2.22,6.67 4.44,13.34 6.66,20.01c0.09,0.27 0.24,0.52 0.38,0.82l0.51,-0.6l-0.13,7.68z" fill="#4FAA41" fill-rule="evenodd" id="svg_11"/>
  <path clip-rule="evenodd" d="m57.53,35.25c0.16,0.21 0.39,0.39 0.47,0.63a3379.77,3379.77 0 0 1 5.11,15.18c2.1,6.27 4.18,12.55 6.28,18.82c1.27,3.79 2.57,7.57 3.87,11.39l0.58,-0.22l-0.13,1.85l-0.12,0.43c-0.2,2.03 -0.37,4.06 -0.62,6.09c-0.13,1.01 -0.39,2.01 -0.59,3.01c-0.15,-0.22 -0.37,-0.42 -0.45,-0.66c-4.17,-12.45 -8.34,-24.9 -12.51,-37.35a3010.79,3010.79 0 0 0 -4,-11.88c-0.07,-0.2 -0.26,-0.36 -0.39,-0.54l2.5,-6.75z" fill="#4AA73C" fill-rule="evenodd" id="svg_12"/>
  <path clip-rule="evenodd" d="m74.37,64.64l-0.51,0.59c-0.14,-0.29 -0.29,-0.54 -0.38,-0.81c-2.22,-6.67 -4.44,-13.34 -6.67,-20.01a4618.06,4618.06 0 0 0 -5.16,-15.37c-0.09,-0.24 -0.25,-0.45 -0.38,-0.67l4.62,-6.08c0.15,0.19 0.36,0.36 0.43,0.58c1.28,3.76 2.56,7.53 3.82,11.29c1.18,3.52 2.35,7.04 3.54,10.55c0.08,0.24 0.36,0.4 0.55,0.6l0.01,0.8l0.13,18.53z" fill="#57AE47" fill-rule="evenodd" id="svg_13"/>
  <path clip-rule="evenodd" d="m74.23,45.31c-0.19,-0.19 -0.47,-0.36 -0.55,-0.6c-1.19,-3.51 -2.36,-7.03 -3.54,-10.55a2495.58,2495.58 0 0 0 -3.82,-11.29c-0.08,-0.22 -0.28,-0.39 -0.43,-0.58c1.5,-1.48 2.96,-3 4.53,-4.41c1.39,-1.25 2.51,-2.58 2.56,-4.56l0.11,-0.39l0.39,1c-0.01,0.5 -0.05,1.01 -0.02,1.51c0.06,0.87 0.2,1.74 0.24,2.62c0.07,1.62 0.11,3.25 0.14,4.88c0.05,2.61 0.1,5.23 0.13,7.85l0.14,12.56c0.01,0.65 0.08,1.31 0.12,1.97l0,-0.01z" fill="#60B24F" fill-rule="evenodd" id="svg_14"/>
  <path clip-rule="evenodd" d="m72.38,92.43c0.2,-1 0.47,-2 0.59,-3.01c0.25,-2.03 0.42,-4.06 0.62,-6.09l0.05,-0.01l0.05,0.01a31.65,31.65 0 0 0 1.07,7.52c-0.14,0.17 -0.33,0.33 -0.4,0.53c-0.55,1.57 -1.08,3.15 -1.64,4.71c-0.07,0.22 -0.29,0.38 -0.43,0.57l-0.58,-1.96l0.67,-2.27z" fill="#A9AA88" fill-rule="evenodd" id="svg_15"/>
  <path clip-rule="evenodd" d="m72.29,96.66c0.14,-0.19 0.36,-0.35 0.43,-0.57c0.56,-1.56 1.09,-3.14 1.64,-4.71c0.07,-0.2 0.26,-0.35 0.4,-0.53l0.96,2.1c-0.19,0.27 -0.45,0.51 -0.56,0.81l-1.84,5.39c-0.07,0.22 -0.33,0.37 -0.5,0.56l-0.53,-3.05z" fill="#B6B598" fill-rule="evenodd" id="svg_16"/>
  <path clip-rule="evenodd" d="m72.82,99.71c0.17,-0.19 0.43,-0.34 0.5,-0.56l1.84,-5.39c0.1,-0.3 0.37,-0.54 0.56,-0.81l0.92,0.79c-0.44,0.44 -0.69,0.96 -0.54,1.6l-0.29,0.93c-0.12,0.16 -0.31,0.29 -0.37,0.47c-0.64,1.84 -1.25,3.69 -1.9,5.52c-0.08,0.23 -0.31,0.42 -0.47,0.62l-0.25,-3.18l0,0.01z" fill="#C2C1A7" fill-rule="evenodd" id="svg_17"/>
  <path clip-rule="evenodd" d="m73.07,102.88c0.16,-0.21 0.39,-0.39 0.47,-0.62c0.64,-1.83 1.26,-3.68 1.9,-5.52c0.06,-0.18 0.25,-0.31 0.37,-0.47l-0.39,4.23c-0.1,0.12 -0.25,0.23 -0.3,0.37l-1.29,3.7c-0.09,0.26 -0.27,0.48 -0.4,0.72c-0.13,-0.16 -0.34,-0.31 -0.35,-0.47c-0.04,-0.65 -0.01,-1.29 -0.01,-1.94z" fill="#CECDB7" fill-rule="evenodd" id="svg_18"/>
  <path clip-rule="evenodd" d="m73.43,105.29c0.13,-0.24 0.31,-0.46 0.4,-0.71l1.29,-3.71c0.05,-0.14 0.2,-0.25 0.31,-0.37l0.01,2.78l-0.93,2.39l-1.08,-0.38z" fill="#DBDAC7" fill-rule="evenodd" id="svg_19"/>
  <path clip-rule="evenodd" d="m74.51,105.67l0.93,-2.39l0.19,2.83l-1.13,-0.44l0.01,0z" fill="#EBE9DC" fill-rule="evenodd" id="svg_20"/>
  <path clip-rule="evenodd" d="m76.1,95.34c-0.15,-0.64 0.1,-1.15 0.54,-1.6l0.26,0.18l-0.8,1.42z" fill="#CECDB7" fill-rule="evenodd" id="svg_21"/>
  <path clip-rule="evenodd" d="m73.69,83.33l-0.05,-0.01l-0.05,0.01l0.12,-0.43l-0.02,0.43z" fill="#4FAA41" fill-rule="evenodd" id="svg_22"/>
 </g>

</svg>