<?xml version="1.0"?>
<svg width="512" height="308.883" xmlns="http://www.w3.org/2000/svg" xmlns:svg="http://www.w3.org/2000/svg" preserveAspectRatio="xMidYMid">
 <g class="layer">
  <title>Layer 1</title>
  <rect fill="#ffffff" height="513" id="svg_34" width="513" x="-0.5" y="-104.88"/>
  <path d="m120.81,80.56l96.57,0l0,7.68l-87.72,0l0,57.76l82.49,0l0,7.68l-82.49,0l0,63.42l88.72,0l0,7.68l-97.57,0l0,-144.22zm105.22,0l10.26,0l45.47,63.42l46.47,-63.42l63.21,-80.56l-103.85,150.65l53.52,74.13l-10.67,0l-48.68,-67.47l-48.89,67.47l-10.46,0l53.91,-74.13l-50.29,-70.09zm118.9,7.68l0,-7.68l110.05,0l0,7.68l-50.7,0l0,136.54l-8.85,0l0,-136.54l-50.5,0zm-344.93,-7.68l11.06,0l152.59,228.32l-63.06,-84.1l-91.34,-133.31l-0.4,133.31l-8.85,0l0,-144.22zm454.08,134.22c-1.81,0 -3.16,-1.4 -3.16,-3.21c0,-1.81 1.35,-3.21 3.16,-3.21c1.83,0 3.17,1.4 3.17,3.21s-1.34,3.21 -3.17,3.21zm8.7,-8.45l4.74,0c0.06,2.57 1.94,4.29 4.69,4.29c3.08,0 4.82,-1.85 4.82,-5.32l0,-21.99l4.83,0l0,22.01c0,6.25 -3.62,9.85 -9.61,9.85c-5.62,0 -9.47,-3.49 -9.47,-8.84zm25.39,-0.28l4.78,0c0.4,2.96 3.29,4.83 7.45,4.83c3.87,0 6.71,-2 6.71,-4.76c0,-2.37 -1.81,-3.8 -5.92,-4.77l-4,-0.97c-5.62,-1.31 -8.18,-4.03 -8.18,-8.6c0,-5.54 4.52,-9.23 11.3,-9.23c6.31,0 10.91,3.69 11.19,8.93l-4.69,0c-0.45,-2.87 -2.95,-4.66 -6.57,-4.66c-3.81,0 -6.35,1.84 -6.35,4.64c0,2.22 1.64,3.49 5.69,4.44l3.42,0.84c6.37,1.49 9,4.07 9,8.75c0,5.95 -4.61,9.68 -11.97,9.68c-6.89,0 -11.52,-3.55 -11.86,-9.12z" id="svg_1"/>
  <rect fill="#ffffff" height="10" id="svg_2" width="3" x="0.5" y="1.12"/>
 </g>

</svg>