<?xml version="1.0"?>
<svg width="128" height="128" xmlns="http://www.w3.org/2000/svg" xmlns:svg="http://www.w3.org/2000/svg">
 <g class="layer">
  <title>Layer 1</title>
  <rect fill="#ffffff" fill-opacity="null" height="138.67" id="svg_7" stroke="#ffffff" stroke-dasharray="null" stroke-linecap="null" stroke-linejoin="null" stroke-opacity="null" width="138.67" x="-6.07" y="-2.2"/>
  <path d="m114.33,80.75c-0.3,0 -0.58,-0.08 -0.84,-0.23l-2.65,-1.56c-0.39,-0.22 -0.2,-0.3 -0.07,-0.35c0.53,-0.18 0.64,-0.23 1.2,-0.54c0.06,-0.04 0.13,-0.02 0.2,0.01l2.03,1.21a0.26,0.26 0 0 0 0.25,0l7.93,-4.58a0.25,0.25 0 0 0 0.13,-0.22l0,-9.16a0.26,0.26 0 0 0 -0.13,-0.21l-7.93,-4.58a0.25,0.25 0 0 0 -0.25,0l-7.93,4.58a0.26,0.26 0 0 0 -0.12,0.22l0,9.16c0,0.08 0.04,0.17 0.12,0.21l2.17,1.25c1.19,0.59 1.91,-0.1 1.91,-0.8l0,-9.04c0,-0.13 0.1,-0.23 0.23,-0.23l1.01,0c0.12,0 0.22,0.1 0.22,0.23l0,9.04c0,1.58 -0.85,2.48 -2.35,2.48c-0.45,0 -0.82,0 -1.82,-0.5l-2.08,-1.2a1.68,1.68 0 0 1 -0.84,-1.44l0,-9.16c0,-0.6 0.32,-1.15 0.84,-1.45l7.93,-4.59a1.74,1.74 0 0 1 1.67,0l7.94,4.59c0.51,0.3 0.83,0.85 0.83,1.45l0,9.16a1.68,1.68 0 0 1 -0.83,1.44l-7.94,4.59a1.65,1.65 0 0 1 -0.83,0.22m2.45,-6.31c-3.48,0 -4.2,-1.6 -4.2,-2.93a0.23,0.23 0 0 1 0.23,-0.23l1.02,0a0.23,0.23 0 0 1 0.23,0.19c0.15,1.05 0.62,1.57 2.72,1.57c1.67,0 2.38,-0.37 2.38,-1.26c0,-0.51 -0.2,-0.89 -2.8,-1.15c-2.17,-0.21 -3.51,-0.69 -3.51,-2.43c0,-1.6 1.35,-2.56 3.61,-2.56c2.54,0 3.8,0.88 3.96,2.78a0.24,0.24 0 0 1 -0.06,0.17a0.24,0.24 0 0 1 -0.17,0.08l-1.03,0a0.23,0.23 0 0 1 -0.22,-0.18c-0.25,-1.1 -0.85,-1.45 -2.48,-1.45c-1.83,0 -2.04,0.63 -2.04,1.11c0,0.58 0.25,0.74 2.71,1.07c2.44,0.32 3.6,0.78 3.6,2.49c0,1.74 -1.44,2.73 -3.95,2.73" fill="#83CD29" id="svg_1"/>
  <path d="m97.98,68.43c0.32,-0.18 0.51,-0.52 0.51,-0.88l0,-2.35c0,-0.37 -0.19,-0.7 -0.51,-0.88l-8.36,-4.86a1.02,1.02 0 0 0 -1.02,0l-8.42,4.86a1.02,1.02 0 0 0 -0.51,0.88l0,9.71c0,0.37 0.2,0.71 0.52,0.89l8.36,4.76c0.31,0.18 0.69,0.18 1,0.01l5.06,-2.81a0.51,0.51 0 0 0 0,-0.89l-8.47,-4.86a0.51,0.51 0 0 1 -0.25,-0.44l0,-3.04c0,-0.19 0.1,-0.35 0.25,-0.44l2.64,-1.52a0.51,0.51 0 0 1 0.51,0l2.63,1.52a0.51,0.51 0 0 1 0.26,0.44l0,2.39a0.51,0.51 0 0 0 0.76,0.44l5.04,-2.93" fill="#404137" id="svg_2"/>
  <path d="m88.98,67.97a0.2,0.2 0 0 1 0.2,0l1.61,0.94c0.06,0.03 0.1,0.1 0.1,0.17l0,1.86c0,0.07 -0.04,0.14 -0.1,0.17l-1.61,0.93a0.19,0.19 0 0 1 -0.2,0l-1.61,-0.93a0.19,0.19 0 0 1 -0.1,-0.17l0,-1.86c0,-0.07 0.04,-0.14 0.1,-0.17l1.61,-0.94" fill="#83CD29" id="svg_3"/>
  <path d="m67.08,71.85c0,0.09 -0.05,0.18 -0.12,0.22l-2.89,1.67a0.25,0.25 0 0 1 -0.26,0l-2.89,-1.67a0.26,0.26 0 0 1 -0.12,-0.22l0,-3.33c0,-0.09 0.04,-0.18 0.12,-0.22l2.89,-1.67a0.25,0.25 0 0 1 0.26,0l2.89,1.67a0.26,0.26 0 0 1 0.12,0.22l0,3.33zm0.78,-24.71a0.51,0.51 0 0 0 -0.75,0.44l0,12.92a0.36,0.36 0 0 1 -0.18,0.3a0.36,0.36 0 0 1 -0.35,0l-2.11,-1.21a1.02,1.02 0 0 0 -1.02,0l-8.42,4.86a1.02,1.02 0 0 0 -0.51,0.88l0,9.72c0,0.36 0.2,0.7 0.51,0.88l8.42,4.86c0.32,0.18 0.7,0.18 1.02,0l8.42,-4.86a1.02,1.02 0 0 0 0.51,-0.88l0,-24.23c0,-0.37 -0.2,-0.71 -0.52,-0.89l-5.02,-2.79" fill="#404137" id="svg_4"/>
  <path d="m38.24,59.41a1.01,1.01 0 0 1 1.01,0l8.42,4.85c0.32,0.19 0.51,0.52 0.51,0.88l0,9.73c0,0.36 -0.19,0.7 -0.51,0.88l-8.42,4.86a1.02,1.02 0 0 1 -1.01,0l-8.42,-4.86a1.02,1.02 0 0 1 -0.51,-0.88l0,-9.73c0,-0.36 0.2,-0.69 0.51,-0.88l8.42,-4.85" fill="#83CD29" id="svg_5"/>
  <path d="m22.93,65.06c0,-0.36 -0.19,-0.7 -0.51,-0.88l-8.41,-4.84a0.99,0.99 0 0 0 -0.47,-0.14l-0.08,0a0.99,0.99 0 0 0 -0.47,0.14l-8.41,4.84a1.02,1.02 0 0 0 -0.51,0.88l0.01,13.04c0,0.19 0.1,0.35 0.26,0.44a0.49,0.49 0 0 0 0.5,0l5,-2.86c0.32,-0.19 0.51,-0.52 0.51,-0.88l0,-6.1c0,-0.36 0.2,-0.69 0.51,-0.88l2.13,-1.22a0.99,0.99 0 0 1 0.51,-0.14c0.17,0 0.35,0.04 0.51,0.14l2.12,1.22c0.32,0.19 0.51,0.52 0.51,0.88l0,6.1c0,0.36 0.2,0.69 0.51,0.88l5,2.86a0.51,0.51 0 0 0 0.76,-0.44l0.02,-13.04" fill="#404137" id="svg_6"/>
 </g>

</svg>