<?xml version="1.0"?>
<svg width="151" height="151" xmlns="http://www.w3.org/2000/svg" xmlns:svg="http://www.w3.org/2000/svg">
 <g class="layer">
  <title>Layer 1</title>
  <rect fill="#ffffff" fill-opacity="null" height="151" id="svg_5" stroke="#ffffff" stroke-dasharray="null" stroke-linecap="null" stroke-linejoin="null" stroke-opacity="null" width="151" x="0" y="0"/>
  <g fill="#61DAFB" id="svg_1">
   <circle cx="76.5" cy="59.2" id="svg_2" r="9.3"/>
   <path d="m76.5,93.4c7.3,7.1 14.5,11.3 20.3,11.3c1.9,0 3.7,-0.4 5.2,-1.3c5.2,-3 7.1,-10.5 5.3,-21.2c-0.3,-1.9 -0.7,-3.8 -1.2,-5.8c2,-0.6 3.8,-1.2 5.6,-1.8c10.1,-3.9 15.7,-9.3 15.7,-15.2c0,-6 -5.6,-11.4 -15.7,-15.2c-1.8,-0.7 -3.6,-1.3 -5.6,-1.8c0.5,-2 0.9,-3.9 1.2,-5.8c1.7,-10.9 -0.2,-18.5 -5.4,-21.5c-1.5,-0.9 -3.3,-1.3 -5.2,-1.3c-5.7,0 -13,4.2 -20.3,11.3c-7.2,-7.1 -14.4,-11.3 -20.2,-11.3c-1.9,0 -3.7,0.4 -5.2,1.3c-5.2,3 -7.1,10.5 -5.3,21.2c0.3,1.9 0.7,3.8 1.2,5.8c-2,0.6 -3.8,1.2 -5.6,1.8c-10.1,3.9 -15.7,9.3 -15.7,15.2c0,6 5.6,11.4 15.7,15.2c1.8,0.7 3.6,1.3 5.6,1.8c-0.5,2 -0.9,3.9 -1.2,5.8c-1.7,10.7 0.2,18.3 5.3,21.2c1.5,0.9 3.3,1.3 5.2,1.3c5.8,0.2 13,-4 20.3,-11zm-5.6,-13.5c1.8,0.1 3.7,0.1 5.6,0.1c1.9,0 3.8,0 5.6,-0.1c-1.8,2.4 -3.7,4.6 -5.6,6.7c-1.9,-2.1 -3.8,-4.3 -5.6,-6.7zm-12.4,-10.3c1,1.7 1.9,3.3 3,4.9c-3.1,-0.4 -6,-0.9 -8.8,-1.5c0.9,-2.7 1.9,-5.5 3.1,-8.3c0.8,1.6 1.7,3.3 2.7,4.9zm-5.8,-24.1c2.8,-0.6 5.7,-1.1 8.8,-1.5c-1,1.6 -2,3.2 -3,4.9c-1,1.7 -1.9,3.3 -2.7,5c-1.3,-2.9 -2.3,-5.7 -3.1,-8.4zm5.5,13.7c1.3,-2.7 2.7,-5.4 4.3,-8.1c1.5,-2.6 3.2,-5.2 4.9,-7.8c3,-0.2 6,-0.3 9.1,-0.3c3.2,0 6.2,0.1 9.1,0.3c1.8,2.6 3.4,5.2 4.9,7.8c1.6,2.7 3,5.4 4.3,8.1c-1.3,2.7 -2.7,5.4 -4.3,8.1c-1.5,2.6 -3.2,5.2 -4.9,7.8c-3,0.2 -6,0.3 -9.1,0.3c-3.2,0 -6.2,-0.1 -9.1,-0.3c-1.8,-2.6 -3.4,-5.2 -4.9,-7.8c-1.6,-2.7 -3,-5.4 -4.3,-8.1zm39.1,-5.4l-2.7,-5c-1,-1.7 -1.9,-3.3 -3,-4.9c3.1,0.4 6,0.9 8.8,1.5c-0.9,2.8 -1.9,5.6 -3.1,8.4zm0,10.8c1.2,2.8 2.2,5.6 3.1,8.3c-2.8,0.6 -5.7,1.1 -8.8,1.5c1,-1.6 2,-3.2 3,-4.9c0.9,-1.5 1.8,-3.2 2.7,-4.9zm2.3,34.7c-0.8,0.5 -1.8,0.7 -2.9,0.7c-4.9,0 -11,-4 -17,-10c2.9,-3.1 5.7,-6.6 8.5,-10.5c4.7,-0.4 9.2,-1.1 13.4,-2.1c0.5,1.8 0.8,3.6 1.1,5.4c1.4,8.5 0.3,14.6 -3.1,16.5zm5.2,-52.7c11.2,3.2 17.9,8.1 17.9,12.6c0,3.9 -4.6,7.8 -12.7,10.9c-1.6,0.6 -3.4,1.2 -5.2,1.7c-1.3,-4.1 -2.9,-8.3 -4.9,-12.6c2,-4.3 3.7,-8.5 4.9,-12.6zm-8,-28.2c1.1,0 2,0.2 2.9,0.7c3.3,1.9 4.5,7.9 3.1,16.5c-0.3,1.7 -0.7,3.5 -1.1,5.4c-4.2,-0.9 -8.7,-1.6 -13.4,-2.1c-2.7,-3.9 -5.6,-7.4 -8.5,-10.5c6,-5.9 12.1,-10 17,-10zm-14.7,20.1c-1.8,-0.1 -3.7,-0.1 -5.6,-0.1s-3.8,0 -5.6,0.1c1.8,-2.4 3.7,-4.6 5.6,-6.7c1.9,2.1 3.8,4.4 5.6,6.7zm-28.7,-19.4c0.8,-0.5 1.8,-0.7 2.9,-0.7c4.9,0 11,4 17,10c-2.9,3.1 -5.7,6.6 -8.5,10.5c-4.7,0.4 -9.2,1.1 -13.4,2.1c-0.5,-1.8 -0.8,-3.6 -1.1,-5.4c-1.4,-8.5 -0.3,-14.5 3.1,-16.5zm-5.2,52.7c-11.2,-3.2 -17.9,-8.1 -17.9,-12.6c0,-3.9 4.6,-7.8 12.7,-10.9c1.6,-0.6 3.4,-1.2 5.2,-1.7c1.3,4.1 2.9,8.3 4.9,12.6c-2,4.3 -3.7,8.6 -4.9,12.6zm2.1,11c0.3,-1.7 0.7,-3.5 1.1,-5.4c4.2,0.9 8.7,1.6 13.4,2.1c2.7,3.9 5.6,7.4 8.5,10.5c-6,5.9 -12.1,10 -17,10c-1.1,0 -2,-0.2 -2.9,-0.7c-3.4,-1.9 -4.5,-8 -3.1,-16.5zm-4.2,41.2c2.2,-2.7 2.3,-5.7 1.1,-8.7c-1.2,-3 -3.7,-4.4 -6.8,-4.5c-3.7,-0.1 -7.5,0 -11.2,0l-0.7,0l0,25.9l3,0l0,-9.8l4.7,0c0.6,0 1.1,0.2 1.4,0.7l6,9.3c0.1,0.2 0.4,0.5 0.6,0.5l3.9,0c-2.4,-3.7 -4.7,-7.2 -7.1,-10.8c2.1,-0.3 3.9,-1 5.1,-2.6zm-14.6,-0.2l0,-9.9l1.1,0c2.3,0 4.7,-0.1 7,0.1c2.7,0.1 4.6,2.2 4.6,4.9s-2.2,4.8 -4.9,4.9c-2.4,0.1 -4.8,0 -7.8,0zm38.7,1.3c-1.6,-7 -8,-8.8 -12.9,-6.6c-3.8,1.7 -5.5,5 -5.6,9.1c-0.1,3.1 0.8,5.9 3.2,8c2.7,2.4 6,2.7 9.4,2.1c1.9,-0.4 3.6,-1.3 4.9,-2.7c-0.5,-0.7 -1,-1.4 -1.5,-2c-2.8,2.4 -5.9,3.2 -9.3,1.6c-2.2,-1.1 -3.3,-3.8 -3.5,-5.8l15.5,0l0,-1.3c0.1,-0.9 0,-1.7 -0.2,-2.4zm-15.1,1.6c-0.3,-3 2.7,-6.2 6,-6.2c3.8,-0.1 6.2,2.2 6.3,6.2l-12.3,0zm30.7,-8.7c-1.5,-0.3 -3.1,-0.4 -4.6,-0.3c-2.4,0.2 -4.5,1.3 -6.2,3.1c0.5,0.7 0.9,1.4 1.5,2.2c0.2,-0.2 0.4,-0.4 0.6,-0.5c1.6,-1.5 3.5,-2.3 5.8,-2.1c1.8,0.1 3.5,0.7 4,2.5c0.4,1.4 0.3,2.9 0.4,4.4c-0.3,0 -0.4,-0.1 -0.5,-0.2c-2.4,-2 -5.1,-2.4 -8,-1.7c-2.7,0.7 -4.4,2.8 -4.6,5.5c-0.2,3.1 1.2,5.4 3.9,6.5c1.7,0.7 3.6,0.7 5.4,0.3c1.4,-0.3 2,-1.1 4,-2.2l0,1.3l2.8,0c0,-4 0.1,-8.9 0,-13.5c0,-2.9 -1.7,-4.7 -4.5,-5.3zm1.4,12.6c-0.1,0.3 0,0.6 0,0.9c0,2.1 -0.5,2.8 -2.5,3.6c-1.4,0.5 -2.9,0.7 -4.4,0.2c-1.7,-0.5 -2.9,-2 -2.9,-3.7c-0.1,-1.7 1,-3.4 2.7,-3.9c2.3,-0.8 4.4,-0.3 6.3,1.1c0.6,0.5 1,1 0.8,1.8zm15.6,-9.9c2.6,-0.8 5,-0.3 6.8,1.9l0.3,0.2c0.7,-0.6 1.3,-1.2 2.1,-1.9c-0.3,-0.3 -0.4,-0.5 -0.6,-0.8c-2.9,-3.1 -8.6,-3.5 -12.1,-1c-4.9,3.6 -4.8,10.6 -2.4,14.3c2.3,3.5 5.6,4.7 9.5,4.2c2.3,-0.3 4.2,-1.4 5.7,-3.3c-0.7,-0.6 -1.4,-1.2 -2.1,-1.9c-0.2,0.2 -0.3,0.3 -0.4,0.5c-2.7,3 -7.2,2.7 -9.6,-0.5c-1.4,-1.9 -1.7,-4.1 -1.3,-6.3c0.2,-2.5 1.5,-4.5 4.1,-5.4zm20.8,13.6c-0.2,0.1 -0.3,0.2 -0.3,0.2c-0.8,0.6 -1.6,0.7 -2.5,0.4c-0.9,-0.4 -1,-1.2 -1.1,-2l0,-11.4c0,-0.2 0,0.2 0.1,-0.8l3.8,0l0,-3l-4,0l0,-5l-3,0l0,5.4l-2.6,0c-0.2,0 -0.5,0.2 -0.5,0.4c-0.1,0.7 0,1.2 0,2.2l3.2,0l0,12.8c0,1.6 0.4,3 1.8,3.8c1.5,0.9 4.4,0.7 5.7,-0.4c0.2,-0.1 0.3,-0.5 0.3,-0.6c-0.3,-0.6 -0.6,-1.3 -0.9,-2z" id="svg_3"/>
  </g>
 </g>

</svg>